# xmcd
#
# Track frame offsets: 
#        150
#        28207
#        67322
#        102457
#        120762
#        136237
#        152452
#        167532
#        188852
#        207757
#        226710
#        243527
#        258880
#
# Disc length: 3676 seconds
#
# Revision: 0
# Processed by: cddbd v1.5.2PL0 Copyright (c) Steve Scherf et al.
# Submitted via: ExactAudioCopy v0.99pb4
#
DISCID=a70e5a0d
DTITLE=Barry Cuda and the Sharks - Vicious Fishes
DYEAR=1900
DGENRE=Blues
TTITLE0=Drinking Wine Spo-Dee-O-Dee
TTITLE1=Junker Blues - D.U.I. Blues
TTITLE2=Chicken Shack Boogie
TTITLE3=Chicken Rhythm
TTITLE4=Hey Now Baby
TTITLE5=I'm Ready
TTITLE6=Margareetie
TTITLE7=Five Guys Named Moe
TTITLE8=Hello Josephine - Rockin' Pneumonia
TTITLE9=Big Leg Gal
TTITLE10=Blue Coat Man
TTITLE11=Take It Like a Man
TTITLE12=Drinks For the Band
EXTD=
EXTT0=
EXTT1=
EXTT2=
EXTT3=
EXTT4=
EXTT5=
EXTT6=
EXTT7=
EXTT8=
EXTT9=
EXTT10=
EXTT11=
EXTT12=
PLAYORDER=
